<svg xmlns="http://www.w3.org/2000/svg" width="595.3" height="303.7" viewBox="0 0 595.3 303.7"><path fill="#F3EFE0" d="M413 18.9c-3.4 7.5-8 14.7-11 22.3-1.6 3.7-2 7.5-2.9 11.2-1.1 4-3.2 7.3-4.5 11 6.1-5.6 9.2-14.1 12.4-21.5 3.4-7.5 5.1-15 6-23M458.7 62.8c-10.4 7.5-27.8 4-40 5.8-7.3 1.1-14.8 3.5-21.6 6.6-3 1.4-18.9 8.3-19 11.9-.2 4.5 13.6 2.9 16.5 5.4 5.5 4.7 13.8 5.6 20.4 4.3 7.1-1.3 15.3.2 21.5-3.9 7.4-4.5 11.3-11 16.1-18 2.6-4 6.6-7.5 6.6-12.7M310.4 79.7c-.8-3.2-3.3-6.2-4.9-9-1.6-3-3-6.2-4.5-9.2-2.6-4.9-9.8-12.7-16-12.8-.1 2.5 3.9 6.3 5.6 8 2.6 2.6 5 5.3 7.7 7.9 2.4 2.3 3.4 4 5.6 6.6 2.1 2.6 4.2 6.4 6.1 9.5.2-.3.4-.7.4-1"/><path fill="#F3EFE0" d="M320.5 85.5c-2.1-5.1-4.7-7.3-10.3-7.1-4.9.1-10.6 2.8-14.7 5.1-7.7 4.2-18.6 8.3-21.6 19 4.3 0 8.3 1.7 12.6 1.7 2.5 0 12.1-2.2 13.3-.3.7 1-.6 5.3-1 6.4-1.4 2.7-3.5 3.6-5.9 5.1-2.4 1.3-4.8 1.6-2.1 3.7 1.2.9 5.7 1.7 7.8.8 3.8-1.3 7.3-4.9 9.7-8.1.9-1.2 1.7-4.5 2.8-5.2 1.6-1.3 3.6.5 5.5-1 2.8-2.2 6.6-6.1 8-9.6 1.8-4.9-.8-7.7-4.2-10.6M224.6 174.3c2.2-7.5 1.9-15.9 1.6-23.5-.4-7-1.9-22 6.2-25.8.4 1.9-2.8 10-3.2 12.1-.6 3.1-1 6.1-1 9.2.1 3.6-.1 8.5-.2 12.1 0 2.4-1.8 14.2-3.3 16.1M185.6 202.6c-9.3-2.4-16.2-7.7-24.1-12.9-3.8-2.8-8.7-4.3-12.5-6.8-4.2-3.1-4.8-9.1-8.3-11.7-1.4 3.7.8 10.6 2.8 14 2.8 4.9 8.4 6.9 13.5 8.2 4.6 1.5 9.1 2.2 13.7 4.3 4.8 2.4 8.4 4.3 13.8 5.3M189.6 204c3.8-8.2 1-20.5.2-29 5.3.1 6.1 10.5 5.7 14.3-.8 5.2-2.3 10.8-5.9 15"/><path fill="#F3EFE0" d="M197.5 201.2c-2.8-1-6.5 2.4-9.7 2.8-3.4.4-6.7-.2-10.1.1-8.3 1-12.4 6.3-18.3 11.5-2.6 2.1-20.7 9.8-20.1 13.2.4 2.9 17-1.5 19.4-2 3.4-.8 6.9-2.1 10.5-1.5-1 2.3-2.7 5-4.8 6.7-2.4 1.9-7.1 3.4-2.6 4.3 6.1 1.1 10.5-4.2 13.7-9.1 1.8-2.9 2.7-5.2 5.8-7.1 3-1.6 5.1-2.6 7.7-5.2 3-3 12.9-8.5 8.7-13.9M83.4 232.2c6.6-5.5 11.5-12.9 15.3-24 2.8-8.1 4.8-20.6 11.7-26.3 1.3 3.5-.8 7.8-1.7 11.3-.9 4.2-3 9.4-4.8 13.4-2.5 5.7-11.1 20.9-20.8 25.9M81.9 232.3c-6.6-.9-13.3-1.4-19.9-2.6-4.5-1-13.5-4.3-17.2-1.1 2.9 4.6 13.4 5 18.3 5.8 6.1.9 14.2 2 19.2-2.5M76.9 244c2.9-2.1 5.7-3.7 8.1-6.6 2.2-2.9 4.2-5.8 7.3-8.1 6-4.6 14.1-5.9 20.5-10 6.5-4.3 13.6-7.9 20.8-11 3.5-1.5 7-2.8 10.7-3.9 3.7-.8 7.3-3.1 10.7-3.7-.3 3.1-6.4 5.6-8.7 7.2-4.1 2.9-8.2 6.2-12.4 8.7-10 5.9-14.6 11.2-21.7 17.1 2.2-.7 4.5-1.9 6.9-2.1 1.5-.3 7.6-1.6 3.8 3-.8.9-5.6-1.1-7.4-.8-2.7.2-5.4 1.6-8 2.7-5.2 1.8-10.3 4.2-16 4-5.7-.1-9.6-.1-14.7 2.8M102.8 241.5c1.6-1.3 11.3 2.4 14.1 3.2 5.1 1.3 10.3 2.5 15.5 3.6 6.1 1.1 25.9.4 28.2 7.8-8.7.5-19.9-1.9-28.4-4-9.8-2.2-20.8-5.1-29.1-10.5M264.1 144c-5.2 6.4-10.2 12.8-16.4 18.4-6.7 6.5-16.9 10-22.2 17.3-2 2.7-3.4 7.1-4 10.4-.1.9-.6 3.8 0 4.6 1.7 2.1 2.4 0 4.6 0 3.6.4 5.7 4.9 9.3 2.9 1.3-.8 2-3.1 3.4-4.4 1.6-1.5 3.6-2.5 5.2-4 6.9-6.2 13.2-13.2 17.2-21.7 3.8-8.2 8.3-15.2 3.2-23.6"/><path fill="#F3EFE0" d="M259.5 168.7c4.9 10.4-8.5 19-15.7 23-9.7 5.4-19.3 7.5-25.1 17.5 10-5.9 20.8-10.3 30.3-16.7 5.4-3.5 24.1-16.9 10.9-23.1M378.3 119c-3.7 5.1-7.6 10.5-11.7 15.3-4.1 4.4-8.8 8.2-11.8 13.6-5.1 9.3-2.5 18.7-4 28.6 3.7-5.4 10.9-7.5 15.4-11.8 4.8-4.3 6.1-7.5 9.1-12.9 2.5-5.3 3.5-10.4 3.9-16.4.7-6.4.2-9.1-.9-16.2M360.7 175.9c-.1 5.3-1.1 10.4-1.9 15.6-.5 4.7 1.4 9 .7 13.7 2.5-9.6 1.6-19.7 1.5-29.8M382 149.9c-5.7 19.3-10 23.9-13.9 36.2-4.1 13.2-10.7 27.9-6.9 42 3.7-3.4 4.9-14.4 6.1-19.3 1.4-6.6 3.8-13.3 5.2-19.8 3.1-12.9 8.8-25.7 9.5-39.1.1-.5-.4 1.2-.3.7M380.8 169.9c-3.8-3 10.9-10.1 13.3-11.8 5.7-4.4 11.4-10.5 18.2-13.4 6.5-2.7 13-.8 20-1 7-.5 14-1.1 20.6-3.8-6.4 4.1-9.8 11.2-16.9 14.7-6.1 3.2-13.1 1.5-19.6 1.7-6.7.2-12 2.6-18.1 5.3-5.8 2.7-11.8 5-17.4 8M459.5 165.6c5.5-15.2 30.8-8 42-5.1 6.8 1.9 14 3.9 20.7 6.3 7.9 2.5 12.3 6.6 13.8 14.7-2.4.2-4.9-1-7.3-1.3-2.8-.3-5.5.1-8.4-.2-5.7-.8-11.3-4.1-17.1-4 1.5 1.4 3 3.4 4.5 4.8-8.4.1-17.4 1-25.9-.1-7.1-1-23.1-5.8-22.6-15.1M554.2 160.8c.8 8.5-2.2 18-6.1 25.5-4.2 8.2-11 15.6-11.8 25.1.8-9.5 10.8-17.8 15.9-25.2 5.1-7.1 9.7-18.6 2.3-25.7M584 167.6c-5.9 6.1-10.7 13-16.7 19.3-6 6.6-13 12-18.8 18.6 3.7-1 6.6-5.5 9.3-8.1 3-3.3 6.2-6.3 9.4-9.3 3.5-3.5 7.8-6.1 11.1-9.8 3-3.3 3.3-6.6 5.4-10.2M543.7 171.9c-5.6 4.9-7.7 13.3-10.8 20.2-2.5 5.3-5 15.1.1 19.4 2.6-6 2.6-13.2 4.5-19.7 1.8-6 2.6-15.3 6.7-20.4"/><path fill="#F3EFE0" d="M490.4 199.4c7.3-.9 13.3 1.2 20.3 3.1 7.2 2 14.6 3 21.4 5.9 5.1 2 17.4 7.4 14.1 14.5-.7 1.8-2.7 2.8-3.8 4.4-.8.9-1.9 4.4-2.7 4.8-2.5.9-8.2-4.5-10.2-5.6-3.2-1.8-6.8-3.4-9.7-5.4-3.8-2.8-7-6.7-10.5-9.8-5.5-4.9-12.7-9-19.4-11.4"/><path fill="#F3EFE0" d="M539.4 230.5c3.4-.1 6.1.9 9.4 1.5 4.7 1 6.7-2.2 10.8-2.2 7-.2 15 9.8 16.3 15.7.5 2.4 3.6 8.5 2 10.1-2.9 2.3-7.4-2.5-9.2-4.1-5.9-5.2-14.4-4.9-19.7-11-3.3-3.2-5.1-8.5-9.7-10.6"/><path fill="#F3EFE0" d="M539.3 231.2c13.1 12 10.5 27.5 9.5 43.5 1.4-9 2.3-14.9 3.1-22.2.6-7.6-6.4-18.4-13.5-21.6M501 261.4c13.1-6 20-12 30.5-18.6-10.6 11.8-19.3 14.7-30.3 18.8"/><path fill="#F3EFE0" d="M528.8 239.7c-2.8 4-7.4 9-11.5 13.2-4.3 4.1-8.7 7.7-13 11.8 7.7-2.5 20.7-18.4 24.7-24.9M205.8 223.1c3.6 5.5 3.2 18.2 2.5 24.6-.3 3.2-3.9 9.2-2.6 12.2 1 3 8.1 4.7 10.7 5 .3-2.5-1-5.5-1.4-8.1.1-3.5 1.6-5.6 2.2-9 1.9-8.4-7.2-16.4-10-23.5M324.6 105.2c-1.9 6.2-.6 14.3-.9 20.7-.5 7.6-.4 15.3-.3 23.3.1 13.8-.2 29.1-2 42.6 3.3-15.6 7.2-55.2 3.5-86.3M362 96.7c.1 8.3-.8 13.4-1.4 19-1.1 7.2-1.9 14.5-2 21.5-.6 14.3-3 27.8-4.1 41.8 3.9-12.7 7.3-26.1 6.8-39.6-.1-7.7.8-14 1-21.6.3-8.6.2-16.6-.1-20.5M442.9 135.4c-3.3 9.9-9.3 18.5-12.6 28.4-3.6 9.9-8.1 19.3-12.3 28.7 7.8-6.8 10.6-18.4 14.4-26.9 4.2-9.2 8.5-19.2 10.5-29.3M403.6 90c1.7 7.9 7.6 16.2 10.9 23.6 3.4 7.1 7 15.5 8.1 23.3-2-7.9-2.1-16.2-5.2-23.6-2.8-6.7-8.2-18.8-14.2-22.9M479.3 103.2c-6.7 8.6-8 20.9-8.5 31.7-.3 5.7-.3 11.8-1.2 17.5-1 6.6-3.4 14-2.8 20.5 3.5-12.1 5.9-25 9.4-37.1 2.2-8.4 5.7-23.7 3.1-32M391.4 81.8c-3.8.1-10.4 3.2-3.9 4.9 1.6.4 3.5.9 4.6-.5 1.1-1.3.4-4-.7-4.4M411.7 28.2c-1.6 0-3.6-.4-4.3.1-1.2.8.8 2.2 1.8 3.3 3.3 3.3 6.2-2 2.5-3.4M417.6 53.5c1 2.7 3.2 5.1 4.6 7.7 1.8 3.5 4.3.1 5.4-2.5 1-2.9.6-5.3-2.8-5.1-1.4 0-6.6-.7-7.3.2M420.3 97.1c.4-1.2-1.3-2.7-.2-3.7.9-1 4-.2 4.2.9.5 1.4-1.8 2.9-.8 4.6.2.3 1.4.5 1.8 1 .3.4 1 2.1 1 2.7 0 1.2-1.7 3.3-2.9 3.9-1.3.8-.7.3-2-.5-.6-.3-2.1-.7-2.4-1.2-.4-.5 0-1.4-.3-2.1-.5-.8-1.8-.7-1.8-1.9 0-1.1 2.8-2.6 3.3-3.8M324.5 40.2c-.3-.8 1.4-.9 1.9-1.3.9-.5 1.2-1.7 2.4-1.3.5.2.8.6 1.2.8.4.2.8.1 1.2.3.8.3 1.2 1.1 1.4 2 .2 1.1-.5 1.1-1.4 1.5-1 .4-1.4.6-2.4.2-.8-.3-1.5-.4-2.4-.6-1.2-.2-1-1.1-1.9-1.6M299.1 69.2c-1.4 1.7-4.9 1.4-7 1.5-1.4 0-2.5-.3-3.4 1.1-1 1.8.6 1.5 1.7 2.5 1.3 1 1.3 2.4 2.9 2.8 1.8.5 1.1-.5 2-1.8 1.1-1.8 6.3-3.4 3.9-6.4M297.6 103.1c-.7 1.7-2.2 2.6-3.8 3.3-1 .3-3.8.3-4.4 1.1-.4.4-.3 1.4-.3 2 .1 1.3-.3.8.8 1.4.8.4 1.1.1 1.9.8.8.7.5 1 1.6 1.3.9.3 1.1-.1 1.7.5.8.6.3 1.2 1.4 1.6 1.7.6 3-.5 3.6-1.9.2-.5.5-1.5.4-2-.3-1.2-.8-.8-1.5-1.5-1.1-1.1-.9-1.8-.8-3.5.1-.9.2-1.9-.6-2.7M190.3 60.4c-.3.2-1.5 1-1.7 1.3-.3.5.1 1.4.3 1.9.3.9.6.9 1.5 1.2.5.1 1.5.5 2 .5.8-.1 1.6-2.6 1.4-3.3-.2-.9-2.6-1.9-3.3-1.6M235.3 105.3c-.7-.6.4-1.6.5-2.3.2-1.1-.2-1.6.8-2.2 1.5-1 3.5-1.1 5.1-.5 1.4.6 4.8 1.8 1.8 2.9-.5.1-.8 0-1.1.5-.2.5.3.9.2 1.3-.4 1-1.7.4-2.4.2-1.6-.3-4 1.1-5.1-.3M248.6 130.4c-.3-1.3-2.5-2.6-3.8-2.7-1.4-.1-3.5 1.8-2.5 3 .4.5 1.2 1.4 1.9 1.6.7.3 1.4-.1 2.1 0 .9.2 1.3.9 1.9-.2.4-.6.6-1.5.5-2.1M382.4 146.7c.3-1.1 1.6-.9 2.3-1.4.9-.7.6-1.4 1.1-2.3.8-1.5 3.2.2 4.5.8 1.4.6 4.3 1 2.6 3-.6.8-1.6 1.2-2.4 1.8-.8.7-1.4 1.6-2.2 2.3-.5-1.5-.5-2.4-2.2-2.9-1.2-.3-2.9-.4-3.7-1.3M136.8 182.7c-.3-1-.5-2.1-1.3-2.8-.7-.7-1.9-.6-2.7-1.3-2.2-1.8 1.5-3.2 2.5-4.4.4-.6 1.3-2.7 2.1-2.8.7 0 1.1 1.6 2 1.9 1 .4 1.8.3 2.7.8 1 .5 1.6.9 2.8.9-1.2 1.6-1.9 3.5-3.6 4.5-1.7 1.1-3.8.9-4.5 3.2M137.5 183.5c-1.4 1-3.3.2-2.7 2.2.5 1.7 1.3 3.6 2.4 4.9 1.1 1.5 2.8 2.3 4.5 1.1.8-.5.9-1.4 1.9-1.8.7-.3 1.5.1 2.3.2 0-.9-2.8-4-3.6-4.5-1.5-1-3.4-1-4.7-2.3M167 200.1c-.8 3.5-5.3 1.6-7 3.3-2.6 2.5 1.3 4.6 3.3 5 .7.1 1.4.1 1.9.4.9.4.8.8 1.2 1.4.9 1.1 2.3 1.2 3.6 1.6 2.9.8 5.2-1.8 3.4-4.5-1-1.4-1.6-1-3-.7-1.4.4-1.9.5-1.8-1 .1-1 .9-1.9.7-2.9-.1-1-1.2-1.9-2-2.5M110.7 206.2c-.6.4-.8 1.1-1.5 1.3-.7.2-1.1-.3-1.7-.1-1.4.5-2.2 2.1-1 3.1 1 .9 2.7 1.4 3 2.8.2.7.2 1.2 1 .9.6-.2 1.3-.8 1.6-1.3.6-1.1.3-2.5-.2-3.6-.4-1.1-.6-2.4-1.2-3.4M128 231.8c-1.3-.6-2.4-1.5-3.5-2.4-1.2-.9-2.4-1.3-3.7-2-1.5-.7-1.9-1.5-1.7-3.1.1-1.2.7-2.6 1.3-3.6.8-1.2 2.1-1.1 3.4-1 1.3.1 2.6.1 3.8.5 2.9.9.4 4.7-.2 6.5-.3.9-.3 1.6-.2 2.5 0 .4.1.9.2 1.3s.7 1.1.6 1.3M490.5 129.6c.3 1 0 1.9.4 2.9.4 1.1 1.4 2.2 2.1 3.1.7 1.2.8 2.4 2.3 2.3.2 0 3.2-1.7 3.3-1.9 1.6-1.7.3-4.8-1.6-5-1.3-.3-1.9-.1-3.2-.5-1-.4-2.1-.8-3.1-.9M533.3 129.2c-.5 1.3-2.4 3.2-1.5 4.6.8 1.3 3.4 1.1 4.5.7-.6-.8-1.4-1.5-1.9-2.5-.5-.9-.4-2-1.1-2.8M536 190.3c2.1 1.9 4.8 2.4 7.6 2.7 1.7.2 2.4.1 2.2 1.7 0 .4-.6 1.5-.8 1.8-.2.7.1 1.1-.3 1.9-1.5 2.6-5.4 2.7-6.8-.1-1.2-2.4-.7-5.6-2-8M549.9 206.2c.1 1.3 0 2.6-.9 3.7-1.4 1.5-2.5 1.2-4.2 1.2-.8 0-.9-.8-1.4.3-.3.6.5 1.7.7 2.1.5.8 2 3.7 2.8 4 2.1.8 1.5-1.8 2.5-2.5 1.6-1.2 2.5 1.1 3.5-1 1-2.4-1.4-6.9-3.3-8.3M468.2 232c.1 3.8-.3 7.6 0 11.5.1 3.8-2.3 8.4-1.7 11.8 5-4.3 4.3-18 1.5-23.1M499 201.5c-2.8 8.6-4.7 17.2-5.9 26.2-.5 4.7-1.5 9.4-2.2 13.9-.6 3.8.1 9.9-1.2 13.1-7.7-1.8-6-20.5-4.2-25.6 3.1-9 6.9-19.7 13.2-26.9"/><path fill="#F3EFE0" d="M528.4 189.7c-5 5.9-9.8 13.1-15.4 18.7-1.3 1.3-2.8 3.3-4.5 3.8-2 .5-3.3-.6-5-.1-3.2 1.1-6.1 5.6-7.8 8-4 6.3-6.7 13.7-11 19.5-4.7 6.2-12.1 9.5-13.2 17.8-.1.9-.5 2.1-.6 3.1 5.9-5.6 12.3-10 18.9-15 6.5-5.1 9.8-10.9 13.9-17.9 7.4-12.9 19.3-23.8 24.7-37.7v-.2M537 218.7c-15.8 13.4-35.9 24.2-47.2 42.5 19.1-10.2 34.4-25.6 47.7-42.6"/><path fill="#F3EFE0" d="M493 237.8c9.6.1 29.9-6.2 44.6-13.2 7.6-3.5 14.9-6.6 22-10.8 6.9-4.1 12.7-7.5 21.4-12.1 3-1.6 4.8-1.9 1.9-.3-6.7 4.3-12.4 8-18.1 12.7-6.6 5.3-14.1 8.6-21.7 12.1-7.8 3.5-18.5 9.5-26.5 12-7.9 2.3-10.9 3.4-19.2 4.7-2.2.2-6.1 1-8.4.3.6-1.1 2.3-3.6 3.1-4.7M501.9 168.4c-9.6 13.1-18.4 26.6-28.9 38.9-5.5 6.4-11.6 12-16.4 18.9-4.8 6.7-8.6 13.2-14.3 19.3-2.7 2.8-5.4 5.9-7.7 9 5.1 2 13-9.4 18.1-14.4 5.4-5.3 11.1-13.9 17.3-20.2 11.9-12.6 18.9-26.1 27-41.3 1.8-3.4 3.6-6.6 4.9-10"/><path fill="#F3EFE0" d="M543.4 154.9c-6.3 4.8-12.5 9.2-18.6 14.3-7.1 6-14.6 11.2-22.2 16.6-7.1 5.5-13.5 11.8-21 16.7-7.5 5-15.1 9.2-22.8 13.9-8 4.9-15.4 9.9-24 14-2.8 1.6-8.5 2.9-10.6 4.9-.6.7-2.6 3.8-2.2 4.6 1 1.6 2.7-.4 4.2-1 7.3-3.5 15.5-6 23-8.6 8-3 15.4-6.8 23-10.7 6.8-3.3 13.5-7.7 19.8-12.3 5.5-4.2 10.9-7.7 16.7-15.2-6.5 6.7-13.5 12.2-21.8 15.7 8.1-3.9 41.2-39.7 57-52.7"/><path fill="#F3EFE0" d="M485.9 153.8c-8.4 13.5-18.2 26.6-28.8 38.4-10.4 11.6-22.8 29.5-27.6 36.2-.8 1.2-.7 4.5-.4 6 3-1.1 11.3-11.5 14.9-16.4 5-6.2 10-12.4 14-19.1 3.8-6.8 6.9-10.5 11.1-16.8 2-3.1 5.2-8.3 7.2-11.5 1.9-3 8.1-13.9 9.6-16.8"/><path fill="#F3EFE0" d="M536.8 126.6c-14.5 8-27 21.8-39.5 32.7-7.1 6.2-13.8 12.2-21.3 17.9-6.8 5.3-13.3 12-20.7 16.5-10.2 5.9-19 14-29.1 20.6-9 6-21.9 16.1-26.4 22.1 13.1-8.4 27.5-18.8 41.3-27.7 14.4-9.3 33.7-23.5 49.4-36 8.6-6.8 13.6-12.7 21.2-21 4.1-4.4 9.1-9.1 13.2-13.5 3.2-3.3 7.9-9.2 12-11.2M163.3 267.8c-3-4.8-14-6.9-19.3-8.1-7.2-1.7-14.5-2.2-21.8-3-7.6-.8-17.6.4-25.1-2-3.7-1.4-5.4-3.8-10.1-4-7-.4-14.4 2.6-21.3 1.6 1.7 1.8 3.8 3 6.4 3.2-4-.4-9.9 1.2-13.9 1.7-4.9.7-7.7 1.7-12.5 2.8-9.6 2.4-19 7.2-27.8 11.4-2.9 1.4-5.5 3.8-8.3 4.9v-.1c.1 4.2 17.2-7.1 27.2-10.2 9.2-2.9 20.6-6.7 33-6.4 1.6 0 11.8 2.9 21.2 2.3 4.8-.3 9.5-2.6 14.3-2.6 4.6 0 9.3.6 13.9 1.1 3.8.4 6.4.7 10.1 1.1 3.7.4 8.6.7 12.4 1.3 3.7.6 7.1 1.6 10.7 2.7 3 .9 7.2 3.1 10.4 2.5"/><path fill="#F3EFE0" d="M133.4 245.4c11.4 13.1 21.6 28.5 34.7 40.2-4-7.8-10.3-14.5-15.9-21.5-3.7-4.6-10-11.6-18.5-18.3M142.6 194.9c1.8 16.2 5.4 30 12.2 44.5 3.7 7.7 8.3 15 11.6 23 2.7 7.6 5.5 14.3 12.3 19.5-3.2-6.4-3.4-13.5-5.8-20.1-2.7-8-6.5-14.4-10.8-21.9-4-7.1-6.5-14.4-9.5-21.8-3.3-7.7-7.4-14.9-10.4-22.5"/><path fill="#F3EFE0" d="M120.9 215.6c12.5 9 25 17.1 36.8 27.3 6.1 5.5 10.5 9.8 15.6 16.1 4.5 6.2 10.2 12.6 13.9 19.4-4.3-4.6-10.7-11.1-15.2-16-5.2-5.7-12.9-13.5-19.2-18.4-6-4.6-9.6-6.9-14.7-12.1-4.9-4.7-11.6-10.8-16.9-15.9M171.3 244.3c3.1 6.7 4.8 11.7 8.9 18.2 4.2 5.9 6.9 12.9 11.4 18.8-2.9-6.1-4.4-15.8-6.6-18.9-4.2-5.9-9.6-15.4-13.2-17.4M171.6 226.4c4 1.7 4.8 8.5 6.7 11.9 2.7 5.1 7 9.4 10 14.2 5.8 8.6 11.8 17.9 17 26.8 1.1 1.7 5.4 12.1 11.2 8.9 1.2-.7-5.8-11.2-6.9-12.9-4.8-9.1-8.2-21.7-11.6-26.2-3.8-5.1-7.7-9.1-12.8-11.9-5.1-2.8-8.1-8.2-12.9-10.7M151.1 142.4c2.5 3.8 3.2 9.3 4.7 13.3 2.3 5.7 4 10.3 7.3 15.5 6 9.6 11.3 19.8 17.3 29.4 6.6 10 13.6 19 20.3 29 6 9.6 11.7 19.5 18.7 28.2 3.1 3.9 5.6 10.5 9.4 13.5 6.9 4.6 1.7-3.7-.6-6.8-6.7-9-14-18.4-19-28.6-2.4-4.7-4-10.3-6.7-15.1-3.3-5.1-7.2-10-10.2-15.2-6-9.6-11.1-22.3-15-33-1.3-4.1-.1-7.1-.5-7.7-1.8-3.1-8.1-1.8-11.1-3.4-3.6-2-5.5-5.4-8.3-9.2-2.3-3.1-3.2-8.6-6.3-9.9"/><path fill="#F3EFE0" d="M181.1 197.1c2.8 6.7 3.5 14.8 5.7 21.7 1.8 7.2 3.1 15.7 4.6 22.9 1.5 7.2 4.2 14.8 5.3 22 1.2 6.8-.6 17.5 2 20.4 7.1-.8-1.8-45.9-3.6-52.8-2.2-9.2.5-16.9-2.1-25.5-2.9-9.3-8.2-22.3-14-30.3-1.1-1.7-5.9-8-7.7-9.1 1.2 4 6.7 15.4 7.5 19.7.6 3.3.7 8.7 3.3 10.6M168.2 125.7c-4.1 8.5 1.9 11.7 13.3 28 6.2 8.8 11.4 19.1 16.1 28.6 5 10.4 8.9 20.8 15.3 30.4 9.7 14.5 10.4 25.1 11.9 29.1 1.8 4.7 6.1 8.3 8.6 12.4 2.2 3.4 5.4 9.5 9 11.2 2-6.5-4.7-21.6-7.6-27.7-4.1-9.4-7.2-19-13-27.6-6.9-10.3-9.7-22.8-16.7-32.8-6.6-9.7-14.4-17.8-21.4-26.9-6.1-8.3-9.3-17.9-15.6-24.4"/><path fill="#F3EFE0" d="M183.7 94.7c1.7 8.2 3.5 18.6 4.9 26.1 1.9 8.8 3.5 18 4.2 27 1.2 19 5.3 37 8.8 55.6 3.6 17.3 9.1 34.9 10.1 52.3 7.4-3.1 10.1-17.1 10.3-24.2.4-9.9.2-19.5-1.4-28.9-1.5-9.8-3.7-19-5-28.4-1.3-9.1-5.1-17.8-7-27-2.2-9.5-6.8-17-14.9-22.7 4 4.6 8.1 11.1 6.9 16.4-3.8-6.5-8.1-14.3-9.9-21.5-1.6-5.9-4.3-14.8-6.4-24"/><path fill="#F3EFE0" d="M210.5 164.1c13.8 14.3 23.6 33.9 31.6 51.7 3.8 9 8.2 22 11.4 31.3 1.7 5.7 2.6 7.9 5 13.3 1 2.4 5 12.3 6.1 6.1 1.2-6.3-4.9-16.3-7.2-22.1-3.9-9.6-6.5-19.9-10.8-29.4-2.4-5.3-5-10.2-7.9-15.4-2.6-4.8-4.7-9.2-7.8-13.9-3.8-5.9-4-6.8-9.2-11.9-4.1-4-6-6.4-12.3-10.7-.3-.4-.1-.5.4-.4"/><path fill="#F3EFE0" d="M234.5 110c3.2 39 10.5 79.5 4.6 118.8-2.3 15.1-7.4 24.2-7.6 28.9-.2 4.9 3.1 13.1 6.8 8.4 2.6-2.9 4.2-13.3 4.7-17.1 2.5-17.6 3-37.4 3.1-58.8.1-12.8-2-20-3.9-32.4-.9-6.8-2.2-18.1-3.8-24.7-1.5-6.6-.5-13.2-3.7-22.5"/><path fill="#F3EFE0" d="M231.9 134.4c7.9 19.1 14.1 35.4 20 55.2 3 10.9 6.6 22.5 9.3 35.5 2.4 11.3 4.7 21.6 7.4 32.5.9 3.3 1.5 7.2 3.5 9.3-2.9-20.5-6.9-40.7-12.1-60.8-5.5-20.7-11.7-37.1-22.3-60.6-.6-1.2-4.7-9.8-5.2-10.8"/><path fill="#F3EFE0" d="M253.9 170.9c-1.5 7.8-1 24.5-.6 32.6.1 8 .2 13.1.9 21.5.4 8.4-.2 19.8.8 28.2.9 6.2.5 16.4 6.6 22.5-.4-8-2.2-12.1-3-20.1-1-8.4-.9-21.8-1.9-30-2.4-16.3-2.6-38.7-2.8-55"/><path fill="#F3EFE0" d="M286.3 119.7c-1.3 9.5-3.2 17.3-5.1 26.6-2.7 13.1-4.7 23.2-7.9 32.1-6 17-9.5 29.1-14.2 46.5-1.9 5.6-6.5 22-.6 26.2 3 2.2 5.4-5.2 7.3-8.5 2.4-4.9 4-9.4 5.4-14.5 7.8-28.3 9.6-45.7 10.3-61 .6-8.9 1.7-17.4 3.1-26.2 1.9-11.9 0-14.7 1.5-20.3"/><path fill="#F3EFE0" d="M273.8 149.7c-7.4-2.7.8 7.1 1.9 9.2 2.4 4.7 3.7 10 5.5 14.7 3.4 9.6 6.9 19.3 10.3 28.9 2.6 8.6 3.9 17.4 6.5 26.3 2.6 8.9 10 16.7 12 25.6 2.5-5.5-7.2-19.6-8.8-25.3-2.5-9.2-4.5-18.1-7-27.3-2.9-9.3-4.8-18.1-6.4-27.2-1.5-9.8-4.6-20-13.6-25.1"/><path fill="#F3EFE0" d="M296 136.4c2 5.6-1.5 17.1-2 22.2-1 6-1.9 12.3-2.6 18.3-.6 8.3-.9 17.2-1.2 25.8-.5 19.5-1.9 38.8-4.3 58.1-.2 2.2.5 4.2 0 6.4 3.6-18.5 8.1-36.6 10.1-55.5.5-11.1 2-21.5 1.5-32.5-.1-4.8-.3-9.3-.4-13.8 0-9.9 1.9-21.2-.5-27.9"/><path fill="#F3EFE0" d="M270.9 116.5c1.8 4.3 4 7.8 6.4 11.9 2.1 4.4 4.1 9.4 6.2 14.1 4.8 9.1 9.6 18 13.7 27.4 4.4 10.1 8.8 16.3 12.5 26.6 4.3 11 11.1 24.9 17.5 33.9-5-9.8-8.8-19.5-11.3-28.7-2.5-9.9-4.4-18.7-7.2-28.6-5.6-19.5-25.4-40.5-36.9-56.1"/><path fill="#F3EFE0" d="M303.1 96.5c3.6 20.2 2.4 37.7 0 56.6-2.5 20.5 2.4 40.2 1.9 60.3-.3 9.2-.4 18.5-2 27.3-.6 2.2-3.6 12.6-1.5 13.9 2.4 1.5 4.3-6.9 4.8-8.8 6-19.8 6.7-39.3 8.6-59.5 1.4-16.2-5.4-34.3-6.2-49.9-.8-16-2.9-25.5-5.6-39.9M321.4 114.2c9.2 31 4.2 29.6 6.5 49.6 1.3 12 4.7 33.5 9 44.8 4 10.7 7.4 20.9 9 32.3 1.2 9.4 4.4 18.4 5.4 27.8.3-20.4 3.2-42.2-1.3-62.5-2.9-11.5-5.6-23-8.5-34.5-3.1-12.5-2.6-20.7-8-30.3-2.7-4.4-5.9-10.2-7.8-16.8-.9-3.2-2.5-6.7-4-10.3M355.4 187.8c.6 12.2 1.4 25.4 3 37.4.9 6.2 2.2 12.4 2.5 18.5 0 6.4-.7 12.4-3.2 17.9 12.6-13.4 1.2-44.3-2.1-73.5"/><path fill="#F3EFE0" d="M357.7 146.2c-2.7 10.6-5.4 18-7.7 27.3-2 9.4-5 19.6-6.3 29.1-1.3 9.1-4.1 17.8-6.3 26.5-1.2 5-2.3 9.7-3.8 14.6-.9 2.5-4.7 10.7-4 13.3.5 1.3 1.7 2.1 2.9 2.6 2.2-3 2.2-8.7 3.2-12.1 1.7-4.3 3.2-8.6 4.9-12.6 3.9-9.5 4.5-17.8 6.8-27.4 2.7-10 4.5-21 5.3-31.4.2-4.8 2.4-10.3 2.9-15.4.4-4.1 1.7-9.7 2.2-14.2M424.9 124.9C407 142.8 386 192.4 364 224.3c-5.3 7.8-12.7 14-14.4 23.7-1.5 7.8-4 16.5-3.3 24.6-.5-7.1 7.8-19 11.3-25 5.4-9 11.4-17.3 17.2-26 5.4-8.4 12-16.3 16.4-25.1 4.4-8.2 7-17.5 10.5-26.1 2.6-6.1 5.6-10.6 7.9-16.8 2.4-7.1 11.7-22.4 14.9-28.8"/><path fill="#F3EFE0" d="M399.5 128.9c.7 8.7.5 19.6.6 27.3.4 8.4.1 20.5-.9 29-2.1 19.6-3.6 34.2-6.4 53.7-.4 4.1-2 9.7-.8 13.7 1.9 6 5.2-.7 6.6-4.7 3.4-8.3 2-18.3 2.9-27.2 2-18.7 5.4-35.9 2.9-54.4-1.8-13.3-1.5-25.1-5.3-37.7M391 130.5c-1.6 9.4-2.9 20.8-7.2 37.3-2.3 8.6-4.2 18.1-5.4 26.9-2.9 18.2-8.1 36.6-13.7 53.9-.6 2.8-4.7 10.7-1 12 3.1 1 10.2-8.8 11.8-11.2 6-8.6 5.4-17.3 5.5-27.9.8-22.6 6.9-46.6 8.4-69.5.4-3.8 1.7-15.8 2-21.5"/><path fill="#F3EFE0" d="M448.1 101.8c-16.2 35.1-36 76.4-53.1 105-5.4 9-10.3 15.9-17.6 23.7-3.3 3.8-6.9 7.6-6.9 13.3.1 7.7 4.6 1.8 8.2-1.7 14.9-13.4 25-33.8 35.5-50.6 4.3-6.9 9.4-13.1 10.9-21.5 1.2-7.9 2.5-14.1 5.2-21.8 5.5-15.4 13.5-30.2 17.7-46.1M457.3 129.6c-4 16.5-14.3 38.5-20.7 56.3-6.5 18.8-13.9 36.9-20.5 48.7-3.1 5.5-14.7 14.4-16.8 19.6 4-1.8 9.5-7.9 13.1-11.4 3.3-3.5 8.1-7.1 10.8-11 5.3-7.4 7.9-17.2 11.4-25.7 6-14.7 14.1-35.9 18.9-54.6 2-6.5 3.7-16.6 3.9-21.7"/><path fill="#F3EFE0" d="M527.3 63.8c-6.2 7.3-12.6 16.2-18.5 23.9-6.7 8.9-12.9 17.1-19.4 25.8-16 21.3-29 36.6-43.8 53.9-7.3 8.5-15.9 16.9-24.1 25.3-4 4.1-11.3 9.7-17.3 14.8-2.9 2.5-6.3 5.1-7.7 8.8-4.1 11.4 18.8-7.5 21.2-9.6 12-10.9 18.7-13.4 27.4-20.1 15.3-11.8 27.6-27.4 35.5-45.1-1.4 1.4-2.9 2.9-4.3 4 1.9-5.6 2.7-7.4 5.2-12.9 4-7.6 8.5-15.8 13.6-22.5 7.4-9.8 13.3-19.2 16.6-24.1 2.7-3.9 11.9-16 15.4-21.7M324.1 24.7c11.5 37.2 10 56 10.4 84.1.3 23.9-7.8 64.1-12.5 87.6-3.9 19.2-2.2 36.1-9.1 55 7.2 4.1 8.6-26.4 10.1-32 2.9-13.6 8.6-26.4 11.5-40 2.8-12.7 7.5-33.1 8.9-45.9.9-12.9-4.1-23.1-5.1-36-2.2-28.4-3.3-44.2-14.1-71.9M168.2 44.7c5.5 8.6 15.7 14.5 23.4 20.1 9.2 6.7 16.3 14.6 24.9 21.8 9.1 7.7 14.2 13.7 20 22 1.8 2.6 8.9 12.5 10.9 17.8 1.7 4.7 4.5 12 6.5 17 5 13 9.2 23.6 14.7 36.4 7.2 16.8 25.4 79.8 29.5 95.6-.3-9.6-19.7-79.5-21.4-87.4-2.5-12.1-5.9-22.4-10.5-33.7-4.6-11-13.4-27-17-32.5-3.8-5.8-8.3-10.9-12.7-16.1-5.7-6.7-9.6-12.2-13-16.4-12.4-15.4-45-31-55.1-44.6"/></svg>