<!DOCTYPE svg PUBLIC "-//W3C//DTD SVG 1.1//EN" "http://www.w3.org/Graphics/SVG/1.1/DTD/svg11.dtd" [
	<!ENTITY ns_flows "http://ns.adobe.com/Flows/1.0/">
	<!ENTITY ns_extend "http://ns.adobe.com/Extensibility/1.0/">
	<!ENTITY ns_ai "http://ns.adobe.com/AdobeIllustrator/10.0/">
	<!ENTITY ns_graphs "http://ns.adobe.com/Graphs/1.0/">
	<!ENTITY ns_vars "http://ns.adobe.com/Variables/1.0/">
	<!ENTITY ns_imrep "http://ns.adobe.com/ImageReplacement/1.0/">
	<!ENTITY ns_sfw "http://ns.adobe.com/SaveForWeb/1.0/">
	<!ENTITY ns_custom "http://ns.adobe.com/GenericCustomNamespace/1.0/">
	<!ENTITY ns_adobe_xpath "http://ns.adobe.com/XPath/1.0/">
]><svg xmlns="http://www.w3.org/2000/svg" width="225" height="57.576" viewBox="0 0 225 57.576"><g fill="#CCA33E"><path d="M52.622 21.595c-1.481 0-2.398-.419-2.737-.612-.306-.354-.515-1.513-.515-2.608.113-.209.483-.226.612-.048.322 1.046 1.4 2.527 2.769 2.527 1.191 0 1.738-.821 1.738-1.626 0-1.304-1.223-2.077-2.189-2.56-1.159-.58-2.431-1.545-2.431-3.139-.016-1.819 1.401-3.075 3.735-3.075.531 0 1.191.064 1.835.258.209.064.354.096.547.128.129.354.29 1.224.29 2.302-.081.193-.483.209-.628.048-.273-.821-.966-1.996-2.125-1.996-1.062 0-1.642.692-1.642 1.497 0 .74.66 1.417 1.465 1.835l1.062.563c.998.531 2.27 1.465 2.27 3.236.001 1.982-1.625 3.27-4.056 3.27zM60.591 13.32c0-1.626-.032-1.819-.708-1.9l-.499-.064c-.145-.08-.145-.435.032-.547a49.355 49.355 0 0 1 3.718-.145c1.369 0 2.27.161 2.946.418.982.37 1.964 1.224 1.964 2.785 0 2.64-2.656 3.027-3.509 3.027-.193 0-.338 0-.515-.016-.129-.081-.161-.338-.048-.435 1.336-.419 1.61-1.369 1.61-2.56s-.612-2.479-2.061-2.479c-.596 0-.628.177-.628.821v6.793c0 1.498.097 1.626.821 1.739l.515.081c.177.081.177.451 0 .547a68.473 68.473 0 0 0-2.463-.048c-.772 0-1.545.016-2.415.048-.177-.097-.209-.467-.032-.547l.451-.081c.725-.129.821-.241.821-1.739V13.32zM71.877 13.32c0-1.61-.032-1.787-.708-1.884l-.435-.064c-.161-.08-.161-.483.032-.563a57.855 57.855 0 0 1 3.992-.145c1.368 0 2.543.209 3.155.58.934.547 1.417 1.352 1.417 2.382 0 1.433-.966 2.044-1.707 2.415-.161.081-.161.177-.081.354 1.062 2.157 1.723 3.364 2.496 4.024.418.338.837.435 1.079.451.145.081.145.322.064.418-.257.113-.772.145-1.271.145-1.481 0-2.415-.531-3.123-1.69-.515-.853-.885-1.642-1.256-2.495-.193-.435-.451-.563-.853-.563-.563 0-.596.032-.596.354v1.98c0 1.481.097 1.594.821 1.723l.435.081c.112.081.112.467 0 .562a58.762 58.762 0 0 0-4.717 0c-.129-.097-.129-.483 0-.562l.435-.081c.725-.129.821-.241.821-1.723V13.32zm2.206 2.045c0 .562.048.611.998.611.58 0 .917-.145 1.224-.451.273-.273.58-.789.58-1.738 0-1.449-.854-2.383-2.109-2.383-.66 0-.692.048-.692.821l-.001 3.14zM86.48 18.987c0 1.513.097 1.625.837 1.754l.451.081c.129.097.113.467-.016.562a65.301 65.301 0 0 0-2.415-.048 66.3 66.3 0 0 0-2.447.048c-.129-.097-.129-.467 0-.562l.451-.081c.741-.129.837-.241.837-1.754v-5.924c0-1.513-.096-1.626-.837-1.755l-.451-.08c-.129-.097-.129-.467 0-.563.869.032 1.674.048 2.447.048.757 0 1.562-.016 2.431-.048.129.097.129.467 0 .563l-.451.08c-.74.129-.837.242-.837 1.755v5.924zM100.422 18.6c0 1.046 0 2.061.032 2.592-.113.193-.563.371-.95.371-.016 0-.547-.821-1.304-1.755l-3.719-4.604c-.934-1.143-1.465-1.819-1.755-2.061-.08.161-.08.435-.08 1.03v3.123c0 1.304.064 2.511.241 2.946.145.338.516.451.934.515l.451.064c.129.129.097.467 0 .563a57.193 57.193 0 0 0-2.157-.048c-.596 0-1.191.016-1.803.048-.097-.097-.129-.435 0-.563l.273-.048c.435-.081.757-.193.885-.531.178-.435.226-1.642.226-2.946v-4.089c0-.885-.016-1.143-.112-1.369-.129-.273-.354-.467-.918-.547l-.45-.064c-.113-.129-.097-.515.064-.563a54.98 54.98 0 0 0 2.222.048c.547 0 1.014-.016 1.352-.048.161.724 1.208 1.948 2.656 3.67l1.353 1.593c.708.837 1.175 1.401 1.545 1.771.064-.161.064-.435.064-.725v-2.221c0-1.304-.064-2.511-.241-2.946-.145-.338-.499-.451-.934-.515l-.435-.064c-.129-.129-.097-.467 0-.563.869.032 1.497.048 2.157.048.596 0 1.175-.016 1.803-.048.097.097.129.435 0 .563l-.29.048c-.418.064-.725.193-.869.531-.177.435-.241 1.642-.241 2.946V18.6zM114.251 19.518c0 .676.032.998.338 1.062.063.064.05.338-.048.387-.273.048-.691.097-1.127.241-.563.177-1.948.387-2.85.387-1.095 0-2.028-.113-3.171-.562-1.884-.757-3.172-2.543-3.172-4.862 0-2.012.901-3.783 2.834-4.862 1.095-.595 2.398-.853 3.767-.853 1.787 0 2.672.386 3.188.386.049.483.064 1.61.227 2.592-.064.177-.5.193-.612.032-.515-1.513-1.529-2.27-3.026-2.27-2.56 0-3.799 2.125-3.799 4.668 0 2.302.789 3.67 1.835 4.378.772.515 1.61.612 2.205.612.918 0 1.111-.177 1.111-1.224v-1.014c0-.869-.097-.966-.869-1.079l-.709-.096c-.177-.097-.177-.467 0-.563 1.144.032 1.933.048 2.721.048.773 0 1.562-.016 2.109-.048.129.096.129.467 0 .563l-.37.064c-.482.081-.58.242-.58 1.111l-.002.902zM121.111 11.919c0-.386 0-.467-.387-.467h-.998c-1.177 0-1.515.644-1.996 1.819-.193.096-.5.064-.597-.145.339-1.111.418-2.109.531-2.737a.387.387 0 0 1 .452-.017c.081.274.129.338 1.353.338h5.988c1.062 0 1.305-.016 1.449-.354a.4.4 0 0 1 .209-.048c.097 0 .209.064.24.113-.16.547-.272 1.852-.24 2.769-.08.145-.516.177-.596.048-.273-1.03-.5-1.787-1.707-1.787h-.965c-.388 0-.436.048-.436.467v7.099c0 1.498.097 1.626.82 1.723l.645.081c.111.097.111.467 0 .563a84.429 84.429 0 0 0-2.576-.048c-.771 0-1.609.016-2.736.048-.129-.097-.129-.467 0-.563l.726-.081c.726-.081.821-.225.821-1.723v-7.098zM133.137 18.987c0 1.513.098 1.625.838 1.754l.45.081c.13.097.113.467-.016.562a65.259 65.259 0 0 0-2.415-.048c-.771 0-1.577.016-2.447.048-.128-.097-.128-.467 0-.562l.451-.081c.74-.129.837-.241.837-1.754v-5.924c0-1.513-.097-1.626-.837-1.755l-.451-.08c-.128-.097-.128-.467 0-.563.87.032 1.676.048 2.447.048.757 0 1.562-.016 2.431-.048.13.097.13.467 0 .563l-.45.08c-.74.129-.838.242-.838 1.755v5.924zM138.418 13.32c0-1.529-.031-1.835-.771-1.916l-.307-.032c-.16-.08-.16-.547.032-.563a67.351 67.351 0 0 1 4.313-.145c1.319 0 2.641.128 3.75.531 2.109.756 3.27 2.656 3.27 4.668 0 2.157-1.03 3.896-2.883 4.813-1.094.547-2.414.757-4.072.757-.756 0-1.561-.097-2.141-.097-.772 0-1.594.016-2.512.048-.129-.097-.129-.483 0-.563l.5-.081c.723-.113.819-.241.819-1.723l.002-5.697zm2.303 5.103c0 .885.031 1.465.321 1.803.29.322.757.467 1.336.467 2.785 0 3.735-2.479 3.735-4.668 0-2.897-1.529-4.62-4.443-4.62-.436 0-.74.081-.837.209-.097.128-.112.435-.112.934v5.875zM155.098 14.897c0 .451.016.483.45.483h1.11c.838 0 1.029-.113 1.191-.886l.08-.402c.112-.129.516-.129.596.016-.031.515-.049 1.095-.049 1.707s.018 1.191.049 1.706c-.08.145-.482.161-.596.016l-.08-.402c-.162-.772-.354-.901-1.191-.901h-1.11c-.435 0-.45.016-.45.499v1.916c0 .741.063 1.256.258 1.529.209.29.516.418 1.689.418 1.4 0 1.948-.048 2.833-1.867.129-.177.531-.113.597.081-.064.837-.451 2.141-.677 2.576-.854-.032-2.397-.048-3.719-.048h-2.093c-.772 0-1.562.016-2.77.048-.129-.097-.129-.483 0-.562l.758-.113c.724-.113.819-.209.819-1.69v-6.004c0-1.465-.097-1.562-.819-1.707l-.404-.08c-.145-.097-.127-.467.033-.563.756.032 1.545.048 2.317.048h3.413c1.029 0 1.947-.016 2.157-.048.016.257.129 1.417.209 2.495-.064.177-.435.209-.597.064-.177-.563-.401-1.046-.61-1.272-.308-.306-.789-.499-1.578-.499h-1.288c-.531 0-.531.032-.531.628v2.815h.003zM171.771 13.32c0-1.626-.033-1.819-.709-1.9l-.498-.064c-.146-.08-.146-.435.031-.547a49.361 49.361 0 0 1 3.719-.145c1.369 0 2.271.161 2.945.418.982.37 1.965 1.224 1.965 2.785 0 2.64-2.656 3.027-3.51 3.027-.193 0-.338 0-.516-.016-.129-.081-.16-.338-.049-.435 1.336-.419 1.609-1.369 1.609-2.56s-.611-2.479-2.061-2.479c-.596 0-.629.177-.629.821v6.793c0 1.498.098 1.626.822 1.739l.516.081c.177.081.177.451 0 .547a68.473 68.473 0 0 0-2.463-.048c-.773 0-1.547.016-2.416.048-.176-.097-.209-.467-.031-.547l.451-.081c.724-.129.82-.241.82-1.739V13.32h.004zM183.059 13.32c0-1.61-.033-1.787-.709-1.884l-.435-.064c-.161-.08-.161-.483.032-.563a57.855 57.855 0 0 1 3.992-.145c1.367 0 2.543.209 3.154.58.934.547 1.416 1.352 1.416 2.382 0 1.433-.966 2.044-1.705 2.415-.162.081-.162.177-.08.354 1.062 2.157 1.723 3.364 2.494 4.024a1.97 1.97 0 0 0 1.078.451c.146.081.146.322.064.418-.258.113-.772.145-1.271.145-1.48 0-2.415-.531-3.123-1.69-.516-.853-.886-1.642-1.256-2.495-.193-.435-.449-.563-.854-.563-.562 0-.596.032-.596.354v1.98c0 1.481.096 1.594.82 1.723l.436.081c.112.081.112.467 0 .562a58.887 58.887 0 0 0-4.718 0c-.128-.097-.128-.483 0-.562l.437-.081c.724-.129.82-.241.82-1.723V13.32h.004zm2.205 2.045c0 .562.049.611.998.611.579 0 .918-.145 1.223-.451.274-.273.58-.789.58-1.738 0-1.449-.854-2.383-2.108-2.383-.659 0-.69.048-.69.821v3.14h-.003zM197.66 14.897c0 .451.017.483.451.483h1.109c.838 0 1.03-.113 1.191-.886l.081-.402c.112-.129.515-.129.596.016-.032.515-.049 1.095-.049 1.707s.017 1.191.049 1.706c-.081.145-.483.161-.596.016l-.081-.402c-.161-.772-.354-.901-1.191-.901h-1.109c-.436 0-.451.016-.451.499v1.916c0 .741.064 1.256.258 1.529.21.29.516.418 1.689.418 1.4 0 1.949-.048 2.834-1.867.129-.177.531-.113.596.081-.064.837-.45 2.141-.676 2.576a120.2 120.2 0 0 0-3.719-.048h-2.094c-.771 0-1.562.016-2.77.048-.129-.097-.129-.483 0-.562l.758-.113c.725-.113.82-.209.82-1.69v-6.004c0-1.465-.098-1.562-.82-1.707l-.403-.08c-.146-.097-.128-.467.032-.563.757.032 1.546.048 2.318.048h3.412c1.03 0 1.947-.016 2.158-.048.016.257.129 1.417.209 2.495-.064.177-.436.209-.597.064-.177-.563-.401-1.046-.61-1.272-.308-.306-.789-.499-1.578-.499h-1.289c-.53 0-.53.032-.53.628l.002 2.814zM208.303 21.595c-1.48 0-2.398-.419-2.736-.612-.307-.354-.516-1.513-.516-2.608.113-.209.483-.226.612-.048.321 1.046 1.399 2.527 2.769 2.527 1.191 0 1.738-.821 1.738-1.626 0-1.304-1.225-2.077-2.189-2.56-1.158-.58-2.431-1.545-2.431-3.139-.016-1.819 1.4-3.075 3.735-3.075.531 0 1.189.064 1.835.258.209.064.354.096.547.128.129.354.29 1.224.29 2.302-.08.193-.482.209-.628.048-.272-.821-.966-1.996-2.125-1.996-1.062 0-1.642.692-1.642 1.497 0 .74.66 1.417 1.465 1.835l1.062.563c.998.531 2.271 1.465 2.271 3.236-.001 1.982-1.628 3.27-4.057 3.27zM218.059 21.595c-1.48 0-2.397-.419-2.735-.612-.308-.354-.517-1.513-.517-2.608.113-.209.483-.226.612-.048.321 1.046 1.399 2.527 2.769 2.527 1.191 0 1.738-.821 1.738-1.626 0-1.304-1.224-2.077-2.189-2.56-1.158-.58-2.43-1.545-2.43-3.139-.017-1.819 1.399-3.075 3.734-3.075.531 0 1.189.064 1.835.258.209.064.354.096.547.128.129.354.29 1.224.29 2.302-.08.193-.482.209-.628.048-.272-.821-.966-1.996-2.125-1.996-1.062 0-1.642.692-1.642 1.497 0 .74.66 1.417 1.465 1.835l1.062.563c.997.531 2.27 1.465 2.27 3.236 0 1.982-1.627 3.27-4.056 3.27z"/><g><path d="M54.49 37.989c-1.137 2.833-2.753 4.578-2.897 4.578-.256 0-.705-.018-1.137-.08-.048-1.617.016-4.723.064-5.924l-1.232.16c-.032-.24-.064-.464-.08-.672.977-.24 1.841-.479 1.969-.479.112 0 .4.239.496.433-.08 1.889-.192 4.546-.208 5.635 0 .063.064.111.128.031a18.88 18.88 0 0 0 1.264-1.855c.625-1.073 1.329-2.594 1.601-3.729.288-.112.705-.146 1.009-.129.032 1.856.064 4.69.112 5.729 0 .08.08.098.128.032.368-.433.769-.929 1.345-1.937.56-.961 1.216-2.529 1.216-3.186 0-.033-.016-.129-.112-.129l-.96.08c-.032-.225-.032-.447-.048-.673.72-.11 1.617-.271 1.745-.271.112 0 .496.399.512.512-.016.992-.944 2.912-1.697 4.113-.8 1.266-1.857 2.338-1.985 2.338-.224 0-.72-.018-1.104-.08a65.771 65.771 0 0 1-.032-4.498h-.097zM60.921 32.403c-.016-.226-.032-.448-.032-.656 1.152-.208 2.225-.496 2.337-.496.096 0 .336.191.432.352-.24.961-1.136 4.482-1.521 5.986l.096.049c1.44-1.648 2.625-2.05 3.201-2.064.336.048.832.32 1.072.832.064.145.096.32.096.496 0 .705-.544 2.722-1.281 4.803-.032.048 0 .096.064.096.176 0 .625-.08 1.121-.208.048.224.08.448.112.673-.656.225-1.601.336-2.113.336-.08 0-.368-.271-.416-.479.288-.833.8-2.465 1.024-3.329.112-.417.304-1.169.304-1.585 0-.306-.16-.576-.512-.576-.977 0-2.801 1.696-3.041 2.625-.176.624-.656 2.593-.8 3.201h-1.121c.352-1.459 1.921-8.069 2.401-10.149l-1.423.093zM69.433 36.836c.8-.912 1.569-1.265 2.401-1.265 1.136 0 1.729.896 1.745 1.695-.08.528-.417 1.201-.88 1.457-.88.465-1.985.608-3.377.608-.112.384-.208.928-.208 1.231 0 .752.4 1.186 1.088 1.186.64 0 1.648-.354 2.529-.85.096.209.176.416.256.625-.913.561-2.097 1.088-3.201 1.088-.849 0-1.873-.641-1.873-1.889-.001-.972.447-2.685 1.52-3.886zm.832.192c-.256.353-.56.832-.784 1.617.864.016 1.697-.112 2.273-.4.368-.176.656-.432.656-.88 0-.513-.272-1.024-.896-1.024-.513-.001-.913.271-1.249.687zM74.712 36.661c-.032-.225-.032-.465-.032-.674 1.024-.159 1.921-.415 2.001-.415.096 0 .336.224.416.368a70.851 70.851 0 0 0-.464 1.983l.112.032c.944-1.425 1.937-2.385 2.513-2.385.336 0 .624.128.784.224 0 .399-.352 1.121-.528 1.218-.112-.049-.448-.16-.656-.16-.64 0-2.193 1.76-2.545 3.121-.128.479-.432 1.84-.576 2.48h-1.104a407.91 407.91 0 0 0 1.329-5.923l-1.25.131zM81.432 36.836c.8-.912 1.569-1.265 2.401-1.265 1.136 0 1.729.896 1.745 1.695-.08.528-.417 1.201-.88 1.457-.88.465-1.985.608-3.377.608-.112.384-.208.928-.208 1.231 0 .752.4 1.186 1.088 1.186.64 0 1.648-.354 2.529-.85.096.209.176.416.256.625-.913.561-2.097 1.088-3.201 1.088-.849 0-1.873-.641-1.873-1.889 0-.972.448-2.685 1.52-3.886zm.833.192c-.256.353-.56.832-.784 1.617.864.016 1.697-.112 2.273-.4.368-.176.656-.432.656-.88 0-.513-.272-1.024-.896-1.024-.513-.001-.913.271-1.249.687zM94.714 37.989c-1.137 2.833-2.753 4.578-2.897 4.578-.256 0-.704-.018-1.136-.08-.048-1.617.016-4.723.064-5.924l-1.232.16c-.032-.24-.064-.464-.08-.672.977-.24 1.841-.479 1.969-.479.112 0 .4.239.496.433-.08 1.889-.191 4.546-.208 5.635 0 .063.064.111.128.031.305-.385.784-1.057 1.265-1.855.624-1.073 1.329-2.594 1.601-3.729.288-.112.704-.146 1.009-.129.032 1.856.063 4.69.112 5.729 0 .08.08.098.128.032.368-.433.768-.929 1.344-1.937.561-.961 1.217-2.529 1.217-3.186 0-.033-.016-.129-.112-.129l-.96.08c-.032-.225-.032-.447-.048-.673.72-.11 1.616-.271 1.744-.271.112 0 .497.399.513.512-.016.992-.944 2.912-1.696 4.113-.801 1.266-1.857 2.338-1.985 2.338-.224 0-.721-.018-1.104-.08a65.771 65.771 0 0 1-.032-4.498h-.1zM101.705 36.836c.8-.912 1.568-1.265 2.4-1.265 1.137 0 1.729.896 1.745 1.695-.08.528-.416 1.201-.881 1.457-.88.465-1.984.608-3.377.608-.112.384-.208.928-.208 1.231 0 .752.4 1.186 1.088 1.186.641 0 1.649-.354 2.529-.85.097.209.176.416.256.625-.912.561-2.097 1.088-3.201 1.088-.848 0-1.872-.641-1.872-1.889.001-.972.449-2.685 1.521-3.886zm.832.192a4.857 4.857 0 0 0-.784 1.617c.864.016 1.696-.112 2.272-.4.368-.176.656-.432.656-.88 0-.513-.271-1.024-.896-1.024-.512-.001-.912.271-1.248.687zM114.059 40.55c-1.474 1.633-2.498 2.098-3.024 2.098-.353-.064-.881-.385-1.121-.834a1.303 1.303 0 0 1-.144-.64c0-.575.191-1.553.512-2.401.48-1.312 1.601-3.2 3.122-3.2.607 0 1.152.288 1.584.784h.097l.353-.85c.289.08.592.178.881.271-.433 1.44-1.137 4.259-1.488 5.924 0 .048.031.096.08.096.128 0 .561-.111 1.089-.288.063.224.11.448.144.673-.672.256-1.473.416-1.969.416-.048 0-.336-.209-.416-.399.049-.272.225-.929.4-1.617l-.1-.033zm-2.498-2.177c-.368.864-.607 1.873-.607 2.642 0 .465.239.704.512.704.752 0 2.546-1.761 2.851-2.577.096-.287.384-1.439.496-1.92-.354-.513-.85-.785-1.394-.785-.817 0-1.49 1.041-1.858 1.936zM118.072 32.371c-.016-.24-.032-.464-.032-.688 1.409-.16 2.289-.432 2.433-.432.112 0 .32.191.418.352a934.986 934.986 0 0 0-2.369 10.102c0 .048 0 .096.062.096.225 0 .785-.08 1.377-.24.048.24.08.465.096.705a8.286 8.286 0 0 1-2.225.336c-.064 0-.384-.24-.512-.479.398-1.617 1.791-7.731 2.271-9.828l-1.519.076zM126.457 37.989c-1.137 2.833-2.753 4.578-2.896 4.578-.256 0-.705-.018-1.137-.08-.049-1.617.016-4.723.062-5.924l-1.231.16c-.032-.24-.063-.464-.08-.672.978-.24 1.841-.479 1.97-.479.111 0 .399.239.496.433-.08 1.889-.191 4.546-.209 5.635 0 .063.064.111.129.031.305-.385.783-1.057 1.265-1.855.624-1.073 1.329-2.594 1.601-3.729.288-.112.704-.146 1.01-.129.031 1.856.062 4.69.111 5.729 0 .08.079.098.128.032.368-.433.769-.929 1.345-1.937.561-.961 1.217-2.529 1.217-3.186 0-.033-.016-.129-.112-.129l-.96.08c-.032-.225-.032-.447-.048-.673.72-.11 1.616-.271 1.743-.271.113 0 .498.399.514.512-.016.992-.943 2.912-1.697 4.113-.8 1.266-1.855 2.338-1.984 2.338-.224 0-.721-.018-1.104-.08a65.23 65.23 0 0 1-.031-4.498h-.102zM136.137 40.55c-1.473 1.633-2.496 2.098-3.025 2.098-.352-.064-.879-.385-1.119-.834a1.303 1.303 0 0 1-.145-.64c0-.575.191-1.553.512-2.401.48-1.312 1.602-3.2 3.121-3.2.608 0 1.152.288 1.586.784h.096l.354-.85c.287.08.592.178.879.271-.432 1.44-1.136 4.259-1.487 5.924 0 .048.032.096.079.096.129 0 .562-.111 1.09-.288.062.224.111.448.145.673-.673.256-1.474.416-1.97.416-.048 0-.336-.209-.416-.399.048-.272.224-.929.399-1.617l-.099-.033zm-2.496-2.177c-.369.864-.607 1.873-.607 2.642 0 .465.238.704.512.704.752 0 2.545-1.761 2.85-2.577.097-.287.385-1.439.496-1.92-.353-.513-.849-.785-1.393-.785-.817 0-1.491 1.041-1.858 1.936zM139.128 36.821c-.032-.24-.063-.465-.097-.674 1.057-.287 1.855-.575 1.953-.575.111 0 .352.176.479.353.19 2.049.433 4.467.624 6.131h.08c.496-.785.848-1.394 1.152-2.064.464-.992 1.104-2.625 1.104-3.379 0-.096-.048-.144-.145-.144l-.944.097-.048-.672c.801-.129 1.633-.306 1.775-.306.112 0 .498.399.498.513 0 1.088-.945 3.187-1.569 4.354-.8 1.473-2.064 3.218-3.313 4.578-.752.8-1.504 1.36-1.648 1.36-.271 0-.815-.48-.848-.801a7.77 7.77 0 0 0 1.633-1.041c.465-.367 1.023-.912 1.393-1.439-.208-1.328-.624-4.609-.848-6.516l-1.231.225zM150.346 36.708a.225.225 0 0 0-.097-.191c-.176-.113-.448-.209-.832-.209-.257 0-.625.032-.913.192s-.592.479-.592.96c0 .624.4.801 1.12 1.12 1.057.465 1.681.929 1.681 1.841 0 .77-.384 1.409-1.104 1.811-.465.271-1.041.384-1.969.384-.625 0-1.297-.146-1.554-.288.032-.641.063-1.312.097-1.953.225-.032.479-.032.705-.032l.112 1.152c0 .08.031.145.096.176.209.145.562.225.961.225.385 0 .801-.08 1.057-.24.32-.208.496-.496.496-.977 0-.673-.465-.896-1.168-1.217-.93-.4-1.633-.784-1.633-1.809 0-.816.655-1.473 1.217-1.745.526-.257 1.119-.336 1.744-.336.592 0 1.217.159 1.521.336-.063.608-.128 1.231-.176 1.809-.192.017-.464.017-.688.032l-.081-1.041zM157.496 37.924c1.199-1.584 2.24-2.353 3.266-2.368.368.049.864.416 1.088.896.08.158.129.384.129.592 0 1.072-.305 2.497-.944 3.617-.464.881-1.394 1.953-2.736 1.953a2.3 2.3 0 0 1-1.585-.608c-.24 1.2-.592 2.993-.85 4.21-.352.016-.719.016-1.088.016.576-2.944 1.328-6.803 1.873-9.668l-1.297.064v-.673c1.377-.208 1.89-.384 1.984-.384.098 0 .354.191.434.353-.112.496-.272 1.248-.434 1.97l.16.03zm2.753-1.376c-.992 0-2.785 2.032-3.073 3.01-.062.271-.24 1.185-.32 1.568.354.432.914.704 1.377.704.912 0 1.537-.736 1.873-1.44.465-.961.688-2.16.688-3.072 0-.401-.177-.77-.545-.77zM163.175 36.661c-.03-.225-.03-.465-.03-.674 1.023-.159 1.92-.415 2-.415.097 0 .336.224.416.368a77.92 77.92 0 0 0-.465 1.983l.112.032c.944-1.425 1.937-2.385 2.513-2.385.338 0 .625.128.784.224 0 .399-.353 1.121-.526 1.218-.112-.049-.449-.16-.656-.16-.641 0-2.193 1.76-2.547 3.121-.127.479-.432 1.84-.575 2.48h-1.104a395.06 395.06 0 0 0 1.329-5.923l-1.251.131zM169.062 36.661a9.748 9.748 0 0 1-.031-.688c1.248-.178 2.097-.4 2.225-.4.096 0 .352.256.432.4-.367 1.567-1.185 4.945-1.375 5.745-.018.064 0 .112.062.112.208 0 .673-.112 1.201-.256.062.224.096.432.128.672-.656.208-1.394.354-2.001.354-.096 0-.465-.272-.561-.498.353-1.584.863-3.729 1.279-5.521l-1.359.08zm3.186-3.394c0 .416-.4.832-.85.832a.816.816 0 0 1-.815-.8c0-.368.337-.815.896-.815.529-.001.769.447.769.783zM173.189 36.708c-.016-.24-.031-.465-.031-.688 1.057-.177 1.938-.448 2.049-.448.098 0 .336.176.416.336-.111.433-.256 1.071-.432 1.729l.111.049c1.28-1.489 2.576-2.099 3.297-2.113.416.08.816.367 1.041.816.08.159.096.353.096.512 0 .705-.543 2.722-1.279 4.803-.018.062 0 .111.062.111.192 0 .642-.111 1.152-.256.049.225.08.447.098.672a6.427 6.427 0 0 1-2.065.369c-.097 0-.368-.226-.448-.48.271-.816.784-2.497.992-3.298.111-.464.305-1.185.305-1.616 0-.32-.145-.594-.496-.594-.992 0-2.832 1.746-3.09 2.675-.16.592-.624 2.528-.783 3.169h-1.104c.353-1.439.978-4.082 1.377-5.874l-1.268.126zM183.527 41.733c.432 0 1.152-.127 1.824-.318.031.208.047.464.063.688-.881.32-1.873.498-2.449.498-.448 0-1.104-.369-1.312-1.01a.903.903 0 0 1-.049-.288c0-.464.465-2.417.545-2.85.127-.544.336-1.456.433-1.904h-1.249c.048-.239.096-.496.145-.721.399-.032.816-.063 1.185-.08.049 0 .112-.048.129-.11.128-.449.271-1.024.399-1.49.385-.176.896-.271 1.041-.271.031 0 .047.017.047.063a97.748 97.748 0 0 1-.399 1.809c.802 0 1.647 0 2.417-.016a5.524 5.524 0 0 1-.16.815h-2.433c-.112.448-.32 1.394-.433 1.937-.16.705-.479 2.146-.479 2.578-.001.463.287.67.735.67zM194.232 40.501c-1.2 1.409-2.418 2.129-3.121 2.146-.4-.049-.93-.369-1.186-.834-.111-.176-.16-.416-.16-.64 0-.688.225-1.633.528-2.448.496-1.346 1.616-3.153 3.217-3.153a2.62 2.62 0 0 1 1.617.575h.08c.271-1.151.608-2.656.88-3.856l-1.424.063a9.158 9.158 0 0 1-.032-.672c1.328-.177 2.209-.433 2.32-.433.112 0 .305.19.417.353-.271 1.185-2.081 8.916-2.337 10.101-.017.048.03.096.079.096.111 0 .496-.08.992-.256.063.224.111.448.145.656-.721.271-1.376.399-1.872.399-.08 0-.368-.209-.448-.399.049-.257.209-.849.399-1.665l-.094-.033zm.304-1.503c.097-.386.353-1.44.448-1.938-.353-.432-.928-.623-1.424-.623-.93 0-1.649 1.008-2.049 2.032-.32.816-.562 1.824-.562 2.497 0 .561.288.752.592.752.898 0 2.756-1.905 2.995-2.72zM201.734 40.55c-1.473 1.633-2.496 2.098-3.023 2.098-.354-.064-.881-.385-1.121-.834a1.303 1.303 0 0 1-.145-.64c0-.575.191-1.553.513-2.401.479-1.312 1.601-3.2 3.121-3.2.608 0 1.151.288 1.585.784h.096l.354-.85c.287.08.592.178.88.271-.433 1.44-1.136 4.259-1.488 5.924 0 .048.032.096.08.096.128 0 .562-.111 1.089-.288.062.224.111.448.145.673-.672.256-1.473.416-1.969.416-.049 0-.336-.209-.416-.399.047-.272.224-.929.399-1.617l-.1-.033zm-2.496-2.177c-.368.864-.607 1.873-.607 2.642 0 .465.239.704.512.704.752 0 2.545-1.761 2.851-2.577.096-.287.384-1.439.496-1.92-.353-.513-.849-.785-1.394-.785-.817 0-1.491 1.041-1.858 1.936zM205.189 36.676a8.888 8.888 0 0 1-.032-.672c1.217-.192 1.872-.433 2.001-.433.111 0 .305.176.416.336-.08.447-.208.943-.368 1.633l.146.048c1.217-1.487 2.271-2.001 2.912-2.017.336.048.736.287.961.703a.945.945 0 0 1 .096.449c0 .127-.047.495-.127.911l.111.032c1.2-1.568 2.272-2.049 2.944-2.049.306.031.815.336 1.024.801.08.145.111.32.111.479 0 .656-.512 2.675-1.185 4.804-.017.048 0 .096.048.096.191 0 .593-.08 1.121-.239.048.225.096.447.111.672-.672.225-1.36.369-2.032.369-.097 0-.353-.258-.433-.48.271-.833.672-2.321.863-3.09.112-.432.354-1.377.354-1.856 0-.256-.146-.544-.528-.544-.88 0-2.577 1.841-2.817 2.785-.224.896-.496 2.018-.752 3.041h-1.072c.191-.801.705-2.896.896-3.682.111-.465.271-1.36.271-1.696 0-.226-.129-.496-.448-.496-.944 0-2.593 1.841-2.833 2.785-.16.606-.592 2.433-.752 3.089h-1.072c.336-1.439.943-4.064 1.344-5.906l-1.279.127zM218.936 37.924c1.199-1.584 2.24-2.353 3.266-2.368.367.049.863.416 1.088.896.08.158.128.384.128.592 0 1.072-.304 2.497-.944 3.617-.464.881-1.393 1.953-2.736 1.953a2.298 2.298 0 0 1-1.584-.608c-.24 1.2-.592 2.993-.85 4.21-.352.016-.72.016-1.088.016a1971.1 1971.1 0 0 0 1.872-9.668l-1.296.064v-.673c1.376-.208 1.889-.384 1.984-.384.097 0 .353.191.433.353-.112.496-.272 1.248-.433 1.97l.16.03zm2.752-1.376c-.992 0-2.785 2.032-3.072 3.01-.063.271-.24 1.185-.32 1.568.354.432.913.704 1.377.704.912 0 1.537-.736 1.873-1.44.464-.961.688-2.16.688-3.072-.002-.401-.177-.77-.546-.77z"/></g><g><path d="M33.909 3.145v7.016l1.05-.572c.086.75.234 1.445.209 2.134-.009.236-.424.501-.703.672-.4.245-.551.52-.544 1.014.057 4.298.076 8.596.106 12.894.024 3.396-.053 6.798.099 10.189.201 4.471.585 8.932.883 13.397.077 1.156.122 2.314.19 3.471.019.324-.092.472-.434.49-3.109.191-6.216.437-9.327.578-3.332.154-6.667.271-10.001.303-2.256.021-4.514-.129-6.771-.211-1.757-.062-3.513-.155-5.271-.207-1.308-.039-1.31-.018-1.294-1.323.043-3.537.029-7.078.145-10.613.169-5.172.477-10.34.641-15.513.138-4.352.156-8.707.228-13.062.051-3.116.108-6.23.149-9.347.006-.51.184-.769.725-.785 1.837-.056 3.677-.085 5.51-.214 5.074-.357 10.148-.04 15.223-.087 2.576-.024 5.152-.147 7.729-.221.433-.014.868-.003 1.458-.003zM23.825 16.664l-.054-.254c-.354-.119-.702-.271-1.066-.35-1.353-.292-2.519-.793-3.191-2.147-.218-.438-.717-.898-1.176-1.023-1.811-.495-3.656-.864-5.559-.676-.275.027-.58.109-.607-.34-.026-.417.25-.409.542-.453 1.441-.215 2.866-.103 4.291.151 2.556.457 1.953-.042 3.597 2.113.533.698 1.211 1.091 2.044 1.245 1.432.265 2.865.524 4.304.752.65.103 1.327.174 1.863-.362a575.113 575.113 0 0 0 4.047-4.07c.091-.093.11-.299.097-.446-.175-1.809-.368-3.616-.541-5.424-.044-.455-.286-.601-.708-.625-.777-.042-1.552-.142-2.329-.177-2.794-.126-5.59-.36-8.382-.321-3.993.056-7.984.31-11.975.491-1.356.062-2.71.166-4.065.239-.329.017-.515.106-.516.487-.005 2.459-.043 4.917-.036 7.376.007 2.337.172 4.681.057 7.011-.147 2.991-.538 5.969-.762 8.957-.267 3.564-.534 7.133-.681 10.703-.164 3.98.235 7.943.601 11.904.019.201.085.398.145.668.821-.535 1.525-.521 2.23.049 1.085.877 1.359.855 2.43-.045.837-.703 1.422-.678 2.184.096.76.771.946.775 1.79.062.656-.557 1.253-.535 1.853.066.849.852 1.167.848 2.001-.016.625-.648 1.361-.729 2.101-.209.228.157.423.364.641.538.605.488 1.063.5 1.68.043.192-.143.371-.303.556-.456.722-.599 1.319-.584 2.023.041.134.118.292.215.415.344.408.424.865.354 1.318.121.245-.127.462-.312.681-.486.701-.555 1.122-.564 1.824-.025 1.12.859 1.336.857 2.438-.031.596-.479 1.133-.475 1.739-.008.219.168.448.346.703.439.695.254 1.242-.123 1.241-.861-.001-.838-.064-1.676-.075-2.514-.047-3.559-.068-7.117-.131-10.676-.045-2.615-.144-5.23-.208-7.847-.039-1.539-.1-3.077-.078-4.614.056-3.997.152-7.993.227-11.989.004-.219-.047-.44-.081-.731-.3.224-.509.371-.708.53-.952.758-1.944 1.472-2.832 2.298-.492.458-.956.813-1.638.868-2.247.179-4.393.717-6.432 1.717-.821.403-1.351.958-1.774 1.759-.6 1.136-1.347 2.193-2.026 3.275-.631-.354-.642-.374-.371-.772.405-.594.857-1.16 1.217-1.779.299-.513.495-1.086.776-1.721-1.41.361-2.628.777-3.879.963-1.11.165-1.849.727-2.372 1.619-1.014 1.729-2.806 2.488-4.273 3.627-.502-.354-.287-.563.017-.82 1.621-1.373 3.462-2.533 4.389-4.585.102-.225.493-.406.774-.45 2.464-.382 4.81-1.181 7.141-2.016.882-.315 1.701-.816 2.549-1.233z"/><path d="M21.77 29.062c.039 1.076-.752 1.919-1.827 1.957-1.278.041-2.325-.984-2.344-2.296-.014-.927.746-1.706 1.699-1.74 1.45-.054 2.424.765 2.472 2.079zM14.067 28.465c-.917-.026-1.694-.881-1.669-1.836.022-.847.664-1.441 1.525-1.412 1.01.035 1.703.752 1.667 1.726-.03.862-.714 1.546-1.523 1.522zM11.011 13.92c.812.015 1.361.598 1.352 1.436-.008.732-.79 1.397-1.61 1.369-.664-.022-1.204-.647-1.203-1.39a1.41 1.41 0 0 1 1.461-1.415zM26.174 20.172c.739.015 1.305.554 1.281 1.222-.029.804-.663 1.498-1.356 1.485-.707-.014-1.35-.717-1.318-1.444.025-.589.781-1.275 1.393-1.263zM14.695 32.908c-.715-.021-1.501-.748-1.492-1.384.008-.625.703-1.184 1.431-1.151.659.026 1.324.748 1.292 1.399-.03.636-.592 1.151-1.231 1.136zM8.987 32.481c-.613-.01-1.207-.641-1.189-1.264.019-.66.646-1.25 1.307-1.225.659.025 1.219.568 1.208 1.17-.014.789-.562 1.332-1.326 1.319zM22.977 22.468c.012.692-.404 1.143-1.075 1.167-.752.026-1.321-.458-1.338-1.136-.017-.73.481-1.234 1.225-1.239.7-.004 1.176.479 1.188 1.208zM24.698 24.942c.54.009.982.465.973 1.001-.01.578-.599 1.125-1.188 1.107-.526-.017-1.011-.548-.989-1.084.022-.536.608-1.034 1.204-1.024zM14.908 15.327c-.57-.019-.894-.229-.892-.671.002-.502.396-.641.838-.642.462 0 .728.256.709.696-.017.46-.332.651-.655.617z"/></g></g></svg>